<svg width="1280" height="173" viewBox="0 0 1280 173" fill="none" xmlns="http://www.w3.org/2000/svg">
<path d="M74.7806 110.919L75.7591 109.175L74.7806 110.919ZM64.5106 100.886L62.7846 101.896L62.79 101.906L64.5106 100.886ZM64.5106 71.814L66.2312 72.8336L66.2366 72.8244L64.5106 71.814ZM74.7806 61.702L73.8021 59.9577H73.8021L74.7806 61.702ZM103.221 61.702L102.233 63.4411L102.242 63.4463L103.221 61.702ZM113.412 71.814L111.676 72.8086L111.684 72.8211L111.691 72.8336L113.412 71.814ZM113.412 100.886L111.686 99.8756L111.682 99.8822L113.412 100.886ZM103.221 110.919L102.242 109.175L103.221 110.919ZM97.7696 102.466L98.7774 104.194L98.7907 104.186L98.8038 104.178L97.7696 102.466ZM103.695 95.988L105.477 96.8959L103.695 95.988ZM103.695 76.633L101.913 77.5408L101.916 77.5478L101.92 77.5546L103.695 76.633ZM97.7696 70.234L96.7619 71.9616L97.7696 70.234ZM80.1526 70.234L79.1603 68.4975L79.1526 68.5019L79.1449 68.5064L80.1526 70.234ZM74.2276 76.633L76.0026 77.5546L76.0062 77.5478L76.0097 77.5408L74.2276 76.633ZM74.2276 95.988L76.0097 95.0801L74.2276 95.988ZM80.1526 102.466L79.1184 104.178L79.1392 104.19L79.1603 104.202L80.1526 102.466ZM89.0006 112.553C84.1669 112.553 79.766 111.422 75.7591 109.175L73.8021 112.663C78.4325 115.261 83.5117 116.553 89.0006 116.553V112.553ZM75.7591 109.175C71.7477 106.924 68.5801 103.83 66.2312 99.8664L62.79 101.906C65.4971 106.474 69.1762 110.068 73.8021 112.663L75.7591 109.175ZM66.2366 99.8756C63.903 95.889 62.7186 91.3713 62.7186 86.271H58.7186C58.7186 92.02 60.0622 97.2457 62.7846 101.896L66.2366 99.8756ZM62.7186 86.271C62.7186 81.2269 63.9012 76.7654 66.2312 72.8336L62.79 70.7944C60.064 75.3946 58.7186 80.5711 58.7186 86.271H62.7186ZM66.2366 72.8244C68.5871 68.809 71.7538 65.6931 75.7591 63.4463L73.8021 59.9577C69.1701 62.5562 65.4901 66.1817 62.7846 70.8036L66.2366 72.8244ZM75.7591 63.4463C79.766 61.1985 84.1669 60.068 89.0006 60.068V56.068C83.5117 56.068 78.4325 57.3602 73.8021 59.9577L75.7591 63.4463ZM89.0006 60.068C93.8909 60.068 98.287 61.2002 102.233 63.4411L104.208 59.9629C99.6222 57.3584 94.5383 56.068 89.0006 56.068V60.068ZM102.242 63.4463C106.244 65.6911 109.38 68.8019 111.676 72.8086L115.147 70.8194C112.493 66.1888 108.835 62.5583 104.199 59.9577L102.242 63.4463ZM111.691 72.8336C114.021 76.7654 115.204 81.2269 115.204 86.271H119.204C119.204 80.5711 117.858 75.3946 115.132 70.7944L111.691 72.8336ZM115.204 86.271C115.204 91.3713 114.019 95.889 111.686 99.8756L115.138 101.896C117.86 97.2457 119.204 92.02 119.204 86.271H115.204ZM111.682 99.8822C109.387 103.837 106.25 106.926 102.242 109.175L104.199 112.663C108.829 110.066 112.486 106.467 115.141 101.89L111.682 99.8822ZM102.242 109.175C98.2352 111.422 93.8343 112.553 89.0006 112.553V116.553C94.4896 116.553 99.5687 115.261 104.199 112.663L102.242 109.175ZM89.0006 106.678C92.6245 106.678 95.9043 105.869 98.7774 104.194L96.7619 100.738C94.5789 102.012 92.0128 102.678 89.0006 102.678V106.678ZM98.8038 104.178C101.671 102.446 103.896 99.9986 105.477 96.8959L101.913 95.0801C100.649 97.56 98.9243 99.4317 96.7354 100.754L98.8038 104.178ZM105.477 96.8959C107.065 93.7776 107.828 90.2176 107.828 86.271H103.828C103.828 89.6977 103.168 92.6157 101.913 95.0801L105.477 96.8959ZM107.828 86.271C107.828 82.3256 107.066 78.7852 105.47 75.7114L101.92 77.5546C103.168 79.9582 103.828 82.8431 103.828 86.271H107.828ZM105.477 75.7251C103.893 72.6171 101.66 70.1882 98.7774 68.5064L96.7619 71.9616C98.9349 73.2292 100.652 75.0662 101.913 77.5408L105.477 75.7251ZM98.7774 68.5064C95.9043 66.8305 92.6245 66.022 89.0006 66.022V70.022C92.0128 70.022 94.5789 70.6882 96.7619 71.9616L98.7774 68.5064ZM89.0006 66.022C85.3759 66.022 82.0772 66.8307 79.1603 68.4975L81.1449 71.9705C83.3894 70.6879 85.9893 70.022 89.0006 70.022V66.022ZM79.1449 68.5064C76.2619 70.1882 74.0289 72.6171 72.4455 75.7251L76.0097 77.5408C77.2704 75.0662 78.9873 73.2292 81.1604 71.9616L79.1449 68.5064ZM72.4526 75.7114C70.8566 78.7852 70.0946 82.3256 70.0946 86.271H74.0946C74.0946 82.8431 74.7546 79.9582 76.0026 77.5546L72.4526 75.7114ZM70.0946 86.271C70.0946 90.2176 70.857 93.7776 72.4455 96.8959L76.0097 95.0801C74.7542 92.6157 74.0946 89.6977 74.0946 86.271H70.0946ZM72.4455 96.8959C74.0262 99.9986 76.2513 102.446 79.1184 104.178L81.1868 100.754C78.9979 99.4317 77.273 97.56 76.0097 95.0801L72.4455 96.8959ZM79.1603 104.202C82.0772 105.869 85.3759 106.678 89.0006 106.678V102.678C85.9893 102.678 83.3894 102.012 81.1449 100.73L79.1603 104.202ZM166.749 70.234H168.749V68.234H166.749V70.234ZM166.749 114V116H168.749V114H166.749ZM155.61 114H153.61V116H155.61V114ZM155.61 108.47H157.61V102.47L154.01 107.27L155.61 108.47ZM150.001 112.973L150.844 114.786L150.853 114.782L150.862 114.778L150.001 112.973ZM133.49 112.42L132.513 114.165L132.526 114.173L132.54 114.18L133.49 112.42ZM127.249 106.021L125.473 106.942L125.484 106.961L125.494 106.981L127.249 106.021ZM125.037 70.234V68.234H123.037V70.234H125.037ZM136.097 70.234H138.097V68.234H136.097V70.234ZM138.704 102.387L137.23 103.738L137.239 103.749L137.249 103.759L138.704 102.387ZM153.003 102.387L154.458 103.759L154.468 103.749L154.477 103.738L153.003 102.387ZM155.61 70.234V68.234H153.61V70.234H155.61ZM164.749 70.234V114H168.749V70.234H164.749ZM166.749 112H155.61V116H166.749V112ZM157.61 114V108.47H153.61V114H157.61ZM154.01 107.27C152.798 108.886 151.19 110.189 149.139 111.168L150.862 114.778C153.446 113.545 155.578 111.846 157.21 109.67L154.01 107.27ZM149.158 111.16C147.177 112.081 144.992 112.553 142.575 112.553V116.553C145.53 116.553 148.296 115.972 150.844 114.786L149.158 111.16ZM142.575 112.553C139.435 112.553 136.742 111.903 134.44 110.66L132.54 114.18C135.505 115.781 138.868 116.553 142.575 116.553V112.553ZM134.467 110.675C132.18 109.394 130.361 107.542 129.003 105.061L125.494 106.981C127.192 110.083 129.534 112.497 132.513 114.165L134.467 110.675ZM129.024 105.1C127.726 102.596 127.037 99.5545 127.037 95.909H123.037C123.037 100.058 123.823 103.758 125.473 106.942L129.024 105.1ZM127.037 95.909V70.234H123.037V95.909H127.037ZM125.037 72.234H136.097V68.234H125.037V72.234ZM134.097 70.234V94.329H138.097V70.234H134.097ZM134.097 94.329C134.097 98.1269 135.05 101.36 137.23 103.738L140.178 101.036C138.882 99.6217 138.097 97.4831 138.097 94.329H134.097ZM137.249 103.759C139.434 106.077 142.372 107.152 145.814 107.152V103.152C143.252 103.152 141.45 102.384 140.159 101.015L137.249 103.759ZM145.814 107.152C149.297 107.152 152.266 106.084 154.458 103.759L151.548 101.015C150.264 102.376 148.44 103.152 145.814 103.152V107.152ZM154.477 103.738C156.657 101.36 157.61 98.1269 157.61 94.329H153.61C153.61 97.4831 152.825 99.6217 151.529 101.036L154.477 103.738ZM157.61 94.329V70.234H153.61V94.329H157.61ZM155.61 72.234H166.749V68.234H155.61V72.234ZM188.721 77.028H186.721V84.1112L190.426 78.074L188.721 77.028ZM194.251 71.577L193.263 69.8381L193.255 69.843L193.246 69.848L194.251 71.577ZM202.151 69.602H204.151V67.602H202.151V69.602ZM202.151 81.215V83.215H204.151V81.215H202.151ZM191.328 83.664L189.981 82.1861L189.97 82.1961L189.959 82.2063L191.328 83.664ZM188.721 114V116H190.721V114H188.721ZM177.661 114H175.661V116H177.661V114ZM177.661 70.234V68.234H175.661V70.234H177.661ZM188.721 70.234H190.721V68.234H188.721V70.234ZM190.426 78.074C191.682 76.0276 193.289 74.45 195.257 73.306L193.246 69.848C190.684 71.3374 188.605 73.3937 187.017 75.982L190.426 78.074ZM195.239 73.3159C197.224 72.1881 199.511 71.602 202.151 71.602V67.602C198.894 67.602 195.913 68.3325 193.263 69.8381L195.239 73.3159ZM200.151 69.602V81.215H204.151V69.602H200.151ZM202.151 79.215H199.228V83.215H202.151V79.215ZM199.228 79.215C195.469 79.215 192.273 80.0965 189.981 82.1861L192.676 85.1419C193.965 83.9662 196.036 83.215 199.228 83.215V79.215ZM189.959 82.2063C187.613 84.4102 186.721 87.9545 186.721 92.196H190.721C190.721 88.3268 191.568 86.1831 192.698 85.1217L189.959 82.2063ZM186.721 92.196V114H190.721V92.196H186.721ZM188.721 112H177.661V116H188.721V112ZM179.661 114V70.234H175.661V114H179.661ZM177.661 72.234H188.721V68.234H177.661V72.234ZM186.721 70.234V77.028H190.721V70.234H186.721ZM262.948 62.255L262.028 64.0309L262.037 64.0353L262.948 62.255ZM273.139 71.972L271.396 72.9525L271.403 72.9655L271.411 72.9784L273.139 71.972ZM273.139 101.044L271.411 100.038L271.407 100.045L273.139 101.044ZM262.948 110.603L262.037 108.823L262.028 108.827L262.948 110.603ZM228.425 114H226.425V116H228.425V114ZM228.425 58.858V56.858H226.425V58.858H228.425ZM260.736 99.859L259.322 98.4448L260.736 99.859ZM260.736 73.078L259.299 74.4688L259.305 74.4747L259.31 74.4805L260.736 73.078ZM239.485 68.18V66.18H237.485V68.18H239.485ZM239.485 104.599H237.485V106.599H239.485V104.599ZM247.701 60.858C253.231 60.858 257.987 61.9374 262.028 64.0308L263.868 60.4792C259.166 58.0432 253.758 56.858 247.701 56.858V60.858ZM262.037 64.0353C266.121 66.1262 269.224 69.0918 271.396 72.9525L274.882 70.9915C272.314 66.4256 268.623 62.9131 263.859 60.4747L262.037 64.0353ZM271.411 72.9784C273.63 76.7905 274.773 81.2782 274.773 86.508H278.773C278.773 80.6778 277.493 75.4748 274.867 70.9656L271.411 72.9784ZM274.773 86.508C274.773 91.7378 273.63 96.2255 271.411 100.038L274.867 102.05C277.493 97.5412 278.773 92.3382 278.773 86.508H274.773ZM271.407 100.045C269.239 103.802 266.135 106.725 262.037 108.823L263.859 112.383C268.609 109.952 272.299 106.502 274.871 102.043L271.407 100.045ZM262.028 108.827C257.987 110.921 253.231 112 247.701 112V116C253.758 116 259.166 114.815 263.868 112.379L262.028 108.827ZM247.701 112H228.425V116H247.701V112ZM230.425 114V58.858H226.425V114H230.425ZM228.425 60.858H247.701V56.858H228.425V60.858ZM247.306 106.599C253.466 106.599 258.513 104.91 262.15 101.273L259.322 98.4448C256.639 101.128 252.733 102.599 247.306 102.599V106.599ZM262.15 101.273C265.784 97.6395 267.476 92.6211 267.476 86.508H263.476C263.476 91.8762 262.008 95.7585 259.322 98.4448L262.15 101.273ZM267.476 86.508C267.476 80.3931 265.783 75.3574 262.162 71.6755L259.31 74.4805C262.009 77.224 263.476 81.1416 263.476 86.508H267.476ZM262.173 71.6872C258.54 67.9324 253.484 66.18 247.306 66.18V70.18C252.715 70.18 256.613 71.6929 259.299 74.4688L262.173 71.6872ZM247.306 66.18H239.485V70.18H247.306V66.18ZM237.485 68.18V104.599H241.485V68.18H237.485ZM239.485 106.599H247.306V102.599H239.485V106.599ZM284.815 80.188L283.043 79.261L283.037 79.2718L283.032 79.2826L284.815 80.188ZM292.004 72.288L290.971 70.5756L290.964 70.5796L290.958 70.5837L292.004 72.288ZM310.727 71.498L309.772 73.2552L309.78 73.2595L309.788 73.2637L310.727 71.498ZM316.652 76.475L315.042 77.6614L318.652 82.5608V76.475H316.652ZM316.652 70.234V68.234H314.652V70.234H316.652ZM327.791 70.234H329.791V68.234H327.791V70.234ZM327.791 114V116H329.791V114H327.791ZM316.652 114H314.652V116H316.652V114ZM316.652 107.601H318.652V101.198L315.008 106.463L316.652 107.601ZM310.727 112.736L311.666 114.502L311.673 114.498L311.68 114.495L310.727 112.736ZM292.004 111.867L290.936 113.558L290.943 113.562L290.949 113.566L292.004 111.867ZM284.815 103.888L283.026 104.782L283.034 104.799L283.043 104.815L284.815 103.888ZM315.072 85.244L313.313 86.195L313.318 86.2052L313.324 86.2153L315.072 85.244ZM310.806 80.82L309.792 82.5439L309.811 82.5551L309.83 82.5659L310.806 80.82ZM299.351 80.741L298.353 79.0078L299.351 80.741ZM295.085 85.165L293.346 84.1778L293.341 84.1857L293.337 84.1937L295.085 85.165ZM295.085 98.911L293.315 99.8425L293.33 99.8706L293.346 99.8982L295.085 98.911ZM299.351 103.414L298.314 105.124L298.326 105.131L298.337 105.138L299.351 103.414ZM310.806 103.493L311.782 105.239L311.801 105.228L311.82 105.217L310.806 103.493ZM315.072 99.069L316.82 100.04L316.826 100.03L316.831 100.02L315.072 99.069ZM284.208 91.959C284.208 87.8016 285.023 84.1962 286.598 81.0934L283.032 79.2826C281.131 83.0264 280.208 87.2684 280.208 91.959H284.208ZM286.587 81.115C288.227 77.9796 290.385 75.6288 293.051 73.9923L290.958 70.5837C287.619 72.6339 284.984 75.5497 283.043 79.261L286.587 81.115ZM293.037 74.0004C295.765 72.3545 298.802 71.523 302.195 71.523V67.523C298.11 67.523 294.353 68.5349 290.971 70.5756L293.037 74.0004ZM302.195 71.523C305.188 71.523 307.692 72.1249 309.772 73.2552L311.682 69.7407C308.917 68.2378 305.733 67.523 302.195 67.523V71.523ZM309.788 73.2637C312.033 74.458 313.766 75.9301 315.042 77.6614L318.262 75.2886C316.589 73.0173 314.372 71.1714 311.666 69.7323L309.788 73.2637ZM318.652 76.475V70.234H314.652V76.475H318.652ZM316.652 72.234H327.791V68.234H316.652V72.234ZM325.791 70.234V114H329.791V70.234H325.791ZM327.791 112H316.652V116H327.791V112ZM318.652 114V107.601H314.652V114H318.652ZM315.008 106.463C313.79 108.222 312.068 109.735 309.775 110.977L311.68 114.495C314.442 112.998 316.671 111.088 318.296 108.739L315.008 106.463ZM309.788 110.97C307.646 112.11 305.108 112.711 302.116 112.711V116.711C305.655 116.711 308.858 115.996 311.666 114.502L309.788 110.97ZM302.116 112.711C298.792 112.711 295.788 111.862 293.059 110.168L290.949 113.566C294.329 115.664 298.067 116.711 302.116 116.711V112.711ZM293.072 110.176C290.394 108.485 288.229 106.1 286.587 102.961L283.043 104.815C284.982 108.522 287.61 111.457 290.936 113.558L293.072 110.176ZM286.604 102.994C285.024 99.8347 284.208 96.1724 284.208 91.959H280.208C280.208 96.6989 281.13 100.989 283.026 104.782L286.604 102.994ZM318.652 92.117C318.652 89.1712 318.074 86.5287 316.82 84.2727L313.324 86.2153C314.177 87.7513 314.652 89.6908 314.652 92.117H318.652ZM316.831 84.293C315.613 82.0381 313.93 80.2748 311.782 79.0741L309.83 82.5659C311.263 83.3665 312.425 84.5526 313.313 86.195L316.831 84.293ZM311.82 79.0961C309.726 77.8642 307.454 77.24 305.039 77.24V81.24C306.732 81.24 308.305 81.6692 309.792 82.5439L311.82 79.0961ZM305.039 77.24C302.644 77.24 300.402 77.8279 298.353 79.0078L300.349 82.4742C301.776 81.6527 303.326 81.24 305.039 81.24V77.24ZM298.353 79.0078C296.271 80.2067 294.607 81.956 293.346 84.1778L296.824 86.1522C297.775 84.4766 298.955 83.2766 300.349 82.4742L298.353 79.0078ZM293.337 84.1937C292.086 86.4442 291.505 89.0581 291.505 91.959H295.505C295.505 89.5932 295.977 87.6778 296.833 86.1363L293.337 84.1937ZM291.505 91.959C291.505 94.8634 292.088 97.5101 293.315 99.8425L296.855 97.9795C295.976 96.3093 295.505 94.3213 295.505 91.959H291.505ZM293.346 99.8982C294.603 102.113 296.255 103.876 298.314 105.124L300.388 101.704C298.971 100.845 297.78 99.6065 296.824 97.9238L293.346 99.8982ZM298.337 105.138C300.423 106.365 302.667 106.994 305.039 106.994V102.994C303.408 102.994 301.861 102.57 300.365 101.69L298.337 105.138ZM305.039 106.994C307.434 106.994 309.692 106.406 311.782 105.239L309.83 101.747C308.338 102.581 306.752 102.994 305.039 102.994V106.994ZM311.82 105.217C313.932 103.975 315.602 102.234 316.82 100.04L313.324 98.0977C312.436 99.6962 311.261 100.905 309.792 101.769L311.82 105.217ZM316.831 100.02C318.073 97.7233 318.652 95.065 318.652 92.117H314.652C314.652 94.541 314.178 96.5174 313.313 98.118L316.831 100.02ZM351.47 79.319V77.319H349.47V79.319H351.47ZM352.497 103.73L351.083 105.144L351.137 105.199L351.195 105.249L352.497 103.73ZM361.266 104.678H363.266V102.678H361.266V104.678ZM361.266 114V116H363.266V114H361.266ZM340.331 79.319H342.331V77.319H340.331V79.319ZM335.117 79.319H333.117V81.319H335.117V79.319ZM335.117 70.234V68.234H333.117V70.234H335.117ZM340.331 70.234V72.234H342.331V70.234H340.331ZM340.331 59.411V57.411H338.331V59.411H340.331ZM351.47 59.411H353.47V57.411H351.47V59.411ZM351.47 70.234H349.47V72.234H351.47V70.234ZM361.266 70.234H363.266V68.234H361.266V70.234ZM361.266 79.319V81.319H363.266V79.319H361.266ZM349.47 79.319V100.491H353.47V79.319H349.47ZM349.47 100.491C349.47 102.224 349.867 103.928 351.083 105.144L353.911 102.316C353.758 102.163 353.47 101.708 353.47 100.491H349.47ZM351.195 105.249C352.48 106.35 354.287 106.678 356.131 106.678V102.678C354.604 102.678 353.989 102.374 353.799 102.211L351.195 105.249ZM356.131 106.678H361.266V102.678H356.131V106.678ZM359.266 104.678V114H363.266V104.678H359.266ZM361.266 112H354.314V116H361.266V112ZM354.314 112C349.947 112 347.042 110.939 345.221 109.169C343.41 107.409 342.331 104.618 342.331 100.412H338.331C338.331 105.264 339.583 109.268 342.433 112.037C345.273 114.797 349.359 116 354.314 116V112ZM342.331 100.412V79.319H338.331V100.412H342.331ZM340.331 77.319H335.117V81.319H340.331V77.319ZM337.117 79.319V70.234H333.117V79.319H337.117ZM335.117 72.234H340.331V68.234H335.117V72.234ZM342.331 70.234V59.411H338.331V70.234H342.331ZM340.331 61.411H351.47V57.411H340.331V61.411ZM349.47 59.411V70.234H353.47V59.411H349.47ZM351.47 72.234H361.266V68.234H351.47V72.234ZM359.266 70.234V79.319H363.266V70.234H359.266ZM361.266 77.319H351.47V81.319H361.266V77.319ZM368.984 80.188L367.212 79.261L367.206 79.2718L367.201 79.2826L368.984 80.188ZM376.173 72.288L375.14 70.5756L375.133 70.5796L375.126 70.5837L376.173 72.288ZM394.896 71.498L393.941 73.2552L393.949 73.2595L393.957 73.2637L394.896 71.498ZM400.821 76.475L399.211 77.6614L402.821 82.5608V76.475H400.821ZM400.821 70.234V68.234H398.821V70.234H400.821ZM411.96 70.234H413.96V68.234H411.96V70.234ZM411.96 114V116H413.96V114H411.96ZM400.821 114H398.821V116H400.821V114ZM400.821 107.601H402.821V101.198L399.177 106.463L400.821 107.601ZM394.896 112.736L395.835 114.502L395.842 114.498L395.849 114.495L394.896 112.736ZM376.173 111.867L375.105 113.558L375.112 113.562L375.118 113.566L376.173 111.867ZM368.984 103.888L367.195 104.782L367.203 104.799L367.212 104.815L368.984 103.888ZM399.241 85.244L397.482 86.195L397.487 86.2052L397.493 86.2153L399.241 85.244ZM394.975 80.82L393.961 82.5439L393.98 82.5551L393.999 82.5659L394.975 80.82ZM383.52 80.741L382.522 79.0078L383.52 80.741ZM379.254 85.165L377.515 84.1778L377.51 84.1857L377.506 84.1937L379.254 85.165ZM379.254 98.911L377.484 99.8425L377.499 99.8706L377.515 99.8982L379.254 98.911ZM383.52 103.414L382.483 105.124L382.495 105.131L382.506 105.138L383.52 103.414ZM394.975 103.493L395.951 105.239L395.97 105.228L395.989 105.217L394.975 103.493ZM399.241 99.069L400.989 100.04L400.995 100.03L401 100.02L399.241 99.069ZM368.377 91.959C368.377 87.8016 369.192 84.1962 370.767 81.0934L367.201 79.2826C365.3 83.0264 364.377 87.2684 364.377 91.959H368.377ZM370.756 81.115C372.396 77.9796 374.554 75.6288 377.22 73.9923L375.126 70.5837C371.788 72.6339 369.153 75.5497 367.212 79.261L370.756 81.115ZM377.206 74.0004C379.934 72.3545 382.971 71.523 386.364 71.523V67.523C382.279 67.523 378.521 68.5349 375.14 70.5756L377.206 74.0004ZM386.364 71.523C389.357 71.523 391.861 72.1249 393.941 73.2552L395.851 69.7407C393.086 68.2378 389.901 67.523 386.364 67.523V71.523ZM393.957 73.2637C396.202 74.458 397.935 75.9301 399.211 77.6614L402.431 75.2886C400.758 73.0173 398.541 71.1714 395.835 69.7323L393.957 73.2637ZM402.821 76.475V70.234H398.821V76.475H402.821ZM400.821 72.234H411.96V68.234H400.821V72.234ZM409.96 70.234V114H413.96V70.234H409.96ZM411.96 112H400.821V116H411.96V112ZM402.821 114V107.601H398.821V114H402.821ZM399.177 106.463C397.959 108.222 396.237 109.735 393.943 110.977L395.849 114.495C398.611 112.998 400.839 111.088 402.465 108.739L399.177 106.463ZM393.957 110.97C391.815 112.11 389.277 112.711 386.285 112.711V116.711C389.824 116.711 393.026 115.996 395.835 114.502L393.957 110.97ZM386.285 112.711C382.961 112.711 379.957 111.862 377.228 110.168L375.118 113.566C378.498 115.664 382.236 116.711 386.285 116.711V112.711ZM377.241 110.176C374.563 108.485 372.398 106.1 370.756 102.961L367.212 104.815C369.151 108.522 371.779 111.457 375.105 113.558L377.241 110.176ZM370.773 102.994C369.193 99.8347 368.377 96.1724 368.377 91.959H364.377C364.377 96.6989 365.299 100.989 367.195 104.782L370.773 102.994ZM402.821 92.117C402.821 89.1712 402.243 86.5287 400.989 84.2727L397.493 86.2153C398.346 87.7513 398.821 89.6908 398.821 92.117H402.821ZM401 84.293C399.782 82.0381 398.099 80.2748 395.951 79.0741L393.999 82.5659C395.432 83.3665 396.594 84.5526 397.482 86.195L401 84.293ZM395.989 79.0961C393.895 77.8642 391.623 77.24 389.208 77.24V81.24C390.901 81.24 392.474 81.6692 393.961 82.5439L395.989 79.0961ZM389.208 77.24C386.813 77.24 384.571 77.8279 382.522 79.0078L384.518 82.4742C385.945 81.6527 387.495 81.24 389.208 81.24V77.24ZM382.522 79.0078C380.44 80.2067 378.776 81.956 377.515 84.1778L380.993 86.1522C381.944 84.4766 383.124 83.2766 384.518 82.4742L382.522 79.0078ZM377.506 84.1937C376.255 86.4442 375.674 89.0581 375.674 91.959H379.674C379.674 89.5932 380.146 87.6778 381.002 86.1363L377.506 84.1937ZM375.674 91.959C375.674 94.8634 376.257 97.5101 377.484 99.8425L381.024 97.9795C380.145 96.3093 379.674 94.3213 379.674 91.959H375.674ZM377.515 99.8982C378.772 102.113 380.424 103.876 382.483 105.124L384.557 101.704C383.14 100.845 381.948 99.6065 380.993 97.9238L377.515 99.8982ZM382.506 105.138C384.592 106.365 386.836 106.994 389.208 106.994V102.994C387.577 102.994 386.03 102.57 384.534 101.69L382.506 105.138ZM389.208 106.994C391.603 106.994 393.861 106.406 395.951 105.239L393.999 101.747C392.507 102.581 390.921 102.994 389.208 102.994V106.994ZM395.989 105.217C398.101 103.975 399.771 102.234 400.989 100.04L397.493 98.0977C396.605 99.6962 395.43 100.905 393.961 101.769L395.989 105.217ZM401 100.02C402.242 97.7233 402.821 95.065 402.821 92.117H398.821C398.821 94.541 398.347 96.5174 397.482 98.118L401 100.02ZM475.398 103.493L477.288 102.839L476.823 101.493H475.398V103.493ZM453.436 103.493V101.493H452.012L451.546 102.839L453.436 103.493ZM449.802 114V116H451.227L451.692 114.654L449.802 114ZM438.189 114L436.307 113.324L435.346 116H438.189V114ZM458.018 58.779V56.779H456.611L456.136 58.1031L458.018 58.779ZM470.895 58.779L472.778 58.1031L472.302 56.779H470.895V58.779ZM490.724 114V116H493.567L492.607 113.324L490.724 114ZM479.032 114L477.142 114.654L477.608 116H479.032V114ZM472.396 94.645V96.645H475.204L474.286 93.9912L472.396 94.645ZM464.417 71.577L466.307 70.9232L464.417 65.4587L462.527 70.9232L464.417 71.577ZM456.438 94.645L454.548 93.9912L453.63 96.645H456.438V94.645ZM475.398 101.493H453.436V105.493H475.398V101.493ZM451.546 102.839L447.912 113.346L451.692 114.654L455.326 104.147L451.546 102.839ZM449.802 112H438.189V116H449.802V112ZM440.072 114.676L459.901 59.4549L456.136 58.1031L436.307 113.324L440.072 114.676ZM458.018 60.779H470.895V56.779H458.018V60.779ZM469.013 59.4549L488.842 114.676L492.607 113.324L472.778 58.1031L469.013 59.4549ZM490.724 112H479.032V116H490.724V112ZM480.922 113.346L477.288 102.839L473.508 104.147L477.142 114.654L480.922 113.346ZM474.286 93.9912L466.307 70.9232L462.527 72.2308L470.506 95.2988L474.286 93.9912ZM462.527 70.9232L454.548 93.9912L458.328 95.2988L466.307 72.2308L462.527 70.9232ZM456.438 96.645H472.396V92.645H456.438V96.645ZM535.029 74.579L533.592 75.9702L533.598 75.976L533.603 75.9817L535.029 74.579ZM539.848 114V116H541.848V114H539.848ZM528.788 114H526.788V116H528.788V114ZM526.181 81.847L524.707 83.1984L524.716 83.2088L524.726 83.219L526.181 81.847ZM511.803 81.847L510.349 80.4738L510.348 80.475L511.803 81.847ZM509.196 114V116H511.196V114H509.196ZM498.136 114H496.136V116H498.136V114ZM498.136 70.234V68.234H496.136V70.234H498.136ZM509.196 70.234H511.196V68.234H509.196V70.234ZM509.196 75.685H507.196V81.5141L510.775 76.9129L509.196 75.685ZM514.805 71.261L515.648 73.0744L515.658 73.0702L515.667 73.066L514.805 71.261ZM522.389 71.602C527.138 71.602 530.806 73.0931 533.592 75.9702L536.466 73.1878C532.826 69.4289 528.068 67.602 522.389 67.602V71.602ZM533.603 75.9817C536.351 78.7739 537.848 82.7936 537.848 88.325H541.848C541.848 82.059 540.133 76.9147 536.455 73.1763L533.603 75.9817ZM537.848 88.325V114H541.848V88.325H537.848ZM539.848 112H528.788V116H539.848V112ZM530.788 114V89.826H526.788V114H530.788ZM530.788 89.826C530.788 86.0322 529.837 82.809 527.636 80.475L524.726 83.219C526.001 84.5716 526.788 86.6678 526.788 89.826H530.788ZM527.655 80.4956C525.474 78.1163 522.531 77.003 519.071 77.003V81.003C521.615 81.003 523.412 81.7857 524.707 83.1984L527.655 80.4956ZM519.071 77.003C515.569 77.003 512.583 78.1088 510.349 80.4738L513.257 83.2202C514.605 81.7932 516.464 81.003 519.071 81.003V77.003ZM510.348 80.475C508.147 82.809 507.196 86.0322 507.196 89.826H511.196C511.196 86.6678 511.983 84.5716 513.258 83.219L510.348 80.475ZM507.196 89.826V114H511.196V89.826H507.196ZM509.196 112H498.136V116H509.196V112ZM500.136 114V70.234H496.136V114H500.136ZM498.136 72.234H509.196V68.234H498.136V72.234ZM507.196 70.234V75.685H511.196V70.234H507.196ZM510.775 76.9129C512.046 75.2778 513.66 73.9993 515.648 73.0744L513.962 69.4476C511.421 70.6294 509.295 72.3002 507.617 74.4571L510.775 76.9129ZM515.667 73.066C517.697 72.0968 519.928 71.602 522.389 71.602V67.602C519.373 67.602 516.548 68.2132 513.944 69.456L515.667 73.066ZM550.129 80.188L548.356 79.261L548.351 79.2718L548.345 79.2826L550.129 80.188ZM557.318 72.288L556.284 70.5756L556.278 70.5796L556.271 70.5837L557.318 72.288ZM576.041 71.498L575.086 73.2552L575.093 73.2595L575.101 73.2637L576.041 71.498ZM581.966 76.475L580.355 77.6614L583.966 82.5608V76.475H581.966ZM581.966 70.234V68.234H579.966V70.234H581.966ZM593.105 70.234H595.105V68.234H593.105V70.234ZM593.105 114V116H595.105V114H593.105ZM581.966 114H579.966V116H581.966V114ZM581.966 107.601H583.966V101.198L580.321 106.463L581.966 107.601ZM576.041 112.736L576.98 114.502L576.986 114.498L576.993 114.495L576.041 112.736ZM557.318 111.867L556.25 113.558L556.256 113.562L556.263 113.566L557.318 111.867ZM550.129 103.888L548.34 104.782L548.348 104.799L548.356 104.815L550.129 103.888ZM580.386 85.244L578.626 86.195L578.632 86.2052L578.637 86.2153L580.386 85.244ZM576.12 80.82L575.106 82.5439L575.125 82.5551L575.144 82.5659L576.12 80.82ZM564.665 80.741L563.667 79.0078L564.665 80.741ZM560.399 85.165L558.659 84.1778L558.655 84.1857L558.65 84.1937L560.399 85.165ZM560.399 98.911L558.629 99.8425L558.643 99.8706L558.659 99.8982L560.399 98.911ZM564.665 103.414L563.628 105.124L563.639 105.131L563.651 105.138L564.665 103.414ZM576.12 103.493L577.095 105.239L577.115 105.228L577.134 105.217L576.12 103.493ZM580.386 99.069L582.134 100.04L582.139 100.03L582.145 100.02L580.386 99.069ZM549.522 91.959C549.522 87.8016 550.337 84.1962 551.912 81.0934L548.345 79.2826C546.445 83.0264 545.522 87.2684 545.522 91.959H549.522ZM551.901 81.115C553.541 77.9796 555.699 75.6288 558.364 73.9923L556.271 70.5837C552.932 72.6339 550.298 75.5497 548.356 79.261L551.901 81.115ZM558.351 74.0004C561.078 72.3545 564.115 71.523 567.509 71.523V67.523C563.423 67.523 559.666 68.5349 556.284 70.5756L558.351 74.0004ZM567.509 71.523C570.502 71.523 573.006 72.1249 575.086 73.2552L576.996 69.7407C574.23 68.2378 571.046 67.523 567.509 67.523V71.523ZM575.101 73.2637C577.346 74.458 579.08 75.9301 580.355 77.6614L583.576 75.2886C581.902 73.0173 579.685 71.1714 576.98 69.7323L575.101 73.2637ZM583.966 76.475V70.234H579.966V76.475H583.966ZM581.966 72.234H593.105V68.234H581.966V72.234ZM591.105 70.234V114H595.105V70.234H591.105ZM593.105 112H581.966V116H593.105V112ZM583.966 114V107.601H579.966V114H583.966ZM580.321 106.463C579.103 108.222 577.382 109.735 575.088 110.977L576.993 114.495C579.755 112.998 581.984 111.088 583.61 108.739L580.321 106.463ZM575.101 110.97C572.959 112.11 570.421 112.711 567.43 112.711V116.711C570.968 116.711 574.171 115.996 576.98 114.502L575.101 110.97ZM567.43 112.711C564.106 112.711 561.102 111.862 558.372 110.168L556.263 113.566C559.643 115.664 563.38 116.711 567.43 116.711V112.711ZM558.386 110.176C555.707 108.485 553.543 106.1 551.901 102.961L548.356 104.815C550.296 108.522 552.924 111.457 556.25 113.558L558.386 110.176ZM551.917 102.994C550.338 99.8347 549.522 96.1724 549.522 91.959H545.522C545.522 96.6989 546.443 100.989 548.34 104.782L551.917 102.994ZM583.966 92.117C583.966 89.1712 583.387 86.5287 582.134 84.2727L578.637 86.2153C579.491 87.7513 579.966 89.6908 579.966 92.117H583.966ZM582.145 84.293C580.926 82.0381 579.244 80.2748 577.095 79.0741L575.144 82.5659C576.577 83.3665 577.738 84.5526 578.626 86.195L582.145 84.293ZM577.134 79.0961C575.039 77.8642 572.767 77.24 570.353 77.24V81.24C572.046 81.24 573.618 81.6692 575.106 82.5439L577.134 79.0961ZM570.353 77.24C567.957 77.24 565.716 77.8279 563.667 79.0078L565.662 82.4742C567.089 81.6527 568.64 81.24 570.353 81.24V77.24ZM563.667 79.0078C561.584 80.2067 559.92 81.956 558.659 84.1778L562.138 86.1522C563.089 84.4766 564.269 83.2766 565.662 82.4742L563.667 79.0078ZM558.65 84.1937C557.4 86.4442 556.819 89.0581 556.819 91.959H560.819C560.819 89.5932 561.29 87.6778 562.147 86.1363L558.65 84.1937ZM556.819 91.959C556.819 94.8634 557.401 97.5101 558.629 99.8425L562.168 97.9795C561.289 96.3093 560.819 94.3213 560.819 91.959H556.819ZM558.659 99.8982C559.916 102.113 561.569 103.876 563.628 105.124L565.701 101.704C564.285 100.845 563.093 99.6065 562.138 97.9238L558.659 99.8982ZM563.651 105.138C565.736 106.365 567.981 106.994 570.353 106.994V102.994C568.722 102.994 567.174 102.57 565.679 101.69L563.651 105.138ZM570.353 106.994C572.748 106.994 575.006 106.406 577.095 105.239L575.144 101.747C573.652 102.581 572.065 102.994 570.353 102.994V106.994ZM577.134 105.217C579.246 103.975 580.915 102.234 582.134 100.04L578.637 98.0977C577.749 99.6962 576.575 100.905 575.106 101.769L577.134 105.217ZM582.145 100.02C583.386 97.7233 583.966 95.065 583.966 92.117H579.966C579.966 94.541 579.491 96.5174 578.626 98.118L582.145 100.02ZM614.967 55.54H616.967V53.54H614.967V55.54ZM614.967 114V116H616.967V114H614.967ZM603.907 114H601.907V116H603.907V114ZM603.907 55.54V53.54H601.907V55.54H603.907ZM612.967 55.54V114H616.967V55.54H612.967ZM614.967 112H603.907V116H614.967V112ZM605.907 114V55.54H601.907V114H605.907ZM603.907 57.54H614.967V53.54H603.907V57.54ZM667.764 70.234L669.608 71.009L670.774 68.234H667.764V70.234ZM640.667 134.698V136.698H641.996L642.511 135.473L640.667 134.698ZM628.896 134.698L627.062 133.901L625.845 136.698H628.896V134.698ZM638.376 112.894L640.21 113.691L640.547 112.916L640.226 112.134L638.376 112.894ZM620.838 70.234V68.234H617.853L618.988 70.9945L620.838 70.234ZM633.241 70.234L635.117 69.5408L634.634 68.234H633.241V70.234ZM644.538 100.807L642.662 101.5L644.525 106.542L646.411 101.509L644.538 100.807ZM655.993 70.234V68.234H654.606L654.12 69.5323L655.993 70.234ZM665.92 69.459L638.823 133.923L642.511 135.473L669.608 71.009L665.92 69.459ZM640.667 132.698H628.896V136.698H640.667V132.698ZM630.73 135.495L640.21 113.691L636.542 112.097L627.062 133.901L630.73 135.495ZM640.226 112.134L622.688 69.4735L618.988 70.9945L636.526 113.654L640.226 112.134ZM620.838 72.234H633.241V68.234H620.838V72.234ZM631.365 70.9272L642.662 101.5L646.414 100.114L635.117 69.5408L631.365 70.9272ZM646.411 101.509L657.866 70.9357L654.12 69.5323L642.665 100.105L646.411 101.509ZM655.993 72.234H667.764V68.234H655.993V72.234ZM686.603 79.319V77.319H684.603V79.319H686.603ZM687.63 103.73L686.216 105.144L686.27 105.199L686.328 105.249L687.63 103.73ZM696.399 104.678H698.399V102.678H696.399V104.678ZM696.399 114V116H698.399V114H696.399ZM675.464 79.319H677.464V77.319H675.464V79.319ZM670.25 79.319H668.25V81.319H670.25V79.319ZM670.25 70.234V68.234H668.25V70.234H670.25ZM675.464 70.234V72.234H677.464V70.234H675.464ZM675.464 59.411V57.411H673.464V59.411H675.464ZM686.603 59.411H688.603V57.411H686.603V59.411ZM686.603 70.234H684.603V72.234H686.603V70.234ZM696.399 70.234H698.399V68.234H696.399V70.234ZM696.399 79.319V81.319H698.399V79.319H696.399ZM684.603 79.319V100.491H688.603V79.319H684.603ZM684.603 100.491C684.603 102.224 684.999 103.928 686.216 105.144L689.044 102.316C688.891 102.163 688.603 101.708 688.603 100.491H684.603ZM686.328 105.249C687.613 106.35 689.42 106.678 691.264 106.678V102.678C689.737 102.678 689.121 102.374 688.931 102.211L686.328 105.249ZM691.264 106.678H696.399V102.678H691.264V106.678ZM694.399 104.678V114H698.399V104.678H694.399ZM696.399 112H689.447V116H696.399V112ZM689.447 112C685.08 112 682.175 110.939 680.353 109.169C678.543 107.409 677.464 104.618 677.464 100.412H673.464C673.464 105.264 674.716 109.268 677.566 112.037C680.405 114.797 684.492 116 689.447 116V112ZM677.464 100.412V79.319H673.464V100.412H677.464ZM675.464 77.319H670.25V81.319H675.464V77.319ZM672.25 79.319V70.234H668.25V79.319H672.25ZM670.25 72.234H675.464V68.234H670.25V72.234ZM677.464 70.234V59.411H673.464V70.234H677.464ZM675.464 61.411H686.603V57.411H675.464V61.411ZM684.603 59.411V70.234H688.603V59.411H684.603ZM686.603 72.234H696.399V68.234H686.603V72.234ZM694.399 70.234V79.319H698.399V70.234H694.399ZM696.399 77.319H686.603V81.319H696.399V77.319ZM705.065 63.203L703.651 64.6172L703.68 64.6467L703.711 64.6749L705.065 63.203ZM705.065 53.96L706.449 55.404L706.45 55.4028L705.065 53.96ZM714.782 53.96L713.368 55.3742L713.397 55.4037L713.428 55.4319L714.782 53.96ZM714.782 63.203L716.166 64.647L716.167 64.6458L714.782 63.203ZM715.414 70.234H717.414V68.234H715.414V70.234ZM715.414 114V116H717.414V114H715.414ZM704.354 114H702.354V116H704.354V114ZM704.354 70.234V68.234H702.354V70.234H704.354ZM709.963 63.02C708.467 63.02 707.332 62.5713 706.419 61.7311L703.711 64.6749C705.431 66.2574 707.561 67.02 709.963 67.02V63.02ZM706.479 61.7888C705.603 60.9127 705.169 59.8734 705.169 58.542H701.169C701.169 60.8973 701.999 62.9653 703.651 64.6172L706.479 61.7888ZM705.169 58.542C705.169 57.2116 705.601 56.2163 706.449 55.404L703.681 52.516C702.001 54.1263 701.169 56.1858 701.169 58.542H705.169ZM706.45 55.4028C707.367 54.5221 708.492 54.064 709.963 54.064V50.064C707.536 50.064 705.396 50.8699 703.68 52.5172L706.45 55.4028ZM709.963 54.064C711.434 54.064 712.514 54.5209 713.368 55.3742L716.196 52.5458C714.521 50.871 712.389 50.064 709.963 50.064V54.064ZM713.428 55.4319C714.319 56.2517 714.757 57.2388 714.757 58.542H718.757C718.757 56.1585 717.878 54.091 716.136 52.4881L713.428 55.4319ZM714.757 58.542C714.757 59.8469 714.316 60.8776 713.397 61.7602L716.167 64.6458C717.881 63.0004 718.757 60.9238 718.757 58.542H714.757ZM713.398 61.759C712.55 62.5719 711.459 63.02 709.963 63.02V67.02C712.364 67.02 714.486 66.2567 716.166 64.647L713.398 61.759ZM713.414 70.234V114H717.414V70.234H713.414ZM715.414 112H704.354V116H715.414V112ZM706.354 114V70.234H702.354V114H706.354ZM704.354 72.234H715.414V68.234H704.354V72.234ZM726.262 80.267L728.017 81.2266L728.023 81.2152L726.262 80.267ZM733.925 72.367L734.908 74.1087L734.919 74.1027L734.929 74.0966L733.925 72.367ZM758.573 73.631L757.347 75.211L757.36 75.2211L757.373 75.231L758.573 73.631ZM765.762 85.007V87.007H768.317L767.704 84.5268L765.762 85.007ZM753.833 85.007L751.936 85.6395L752.392 87.007H753.833V85.007ZM750.594 80.583L749.394 82.183L749.426 82.2069L749.459 82.2294L750.594 80.583ZM737.559 82.4L739.11 83.6625L739.117 83.6538L739.124 83.645L737.559 82.4ZM737.559 101.834L735.994 103.079L736.001 103.088L736.008 103.097L737.559 101.834ZM753.833 99.227V97.227H752.404L751.941 98.5796L753.833 99.227ZM765.762 99.227L767.7 99.7222L768.338 97.227H765.762V99.227ZM758.573 110.524L759.803 112.101L758.573 110.524ZM733.925 111.946L732.921 113.676L732.931 113.682L732.942 113.688L733.925 111.946ZM726.262 104.046L724.501 104.994L724.507 105.006L726.262 104.046ZM725.497 92.117C725.497 87.8629 726.361 84.2544 728.017 81.2266L724.507 79.3074C722.477 83.0209 721.497 87.3124 721.497 92.117H725.497ZM728.023 81.2152C729.694 78.1116 731.984 75.7592 734.908 74.1087L732.942 70.6254C729.335 72.6615 726.517 75.5758 724.501 79.3188L728.023 81.2152ZM734.929 74.0966C737.855 72.3976 741.241 71.523 745.143 71.523V67.523C740.619 67.523 736.526 68.5444 732.921 70.6374L734.929 74.0966ZM745.143 71.523C750.222 71.523 754.239 72.7991 757.347 75.211L759.799 72.051C755.85 68.9856 750.914 67.523 745.143 67.523V71.523ZM757.373 75.231C760.539 77.6053 762.705 80.9765 763.821 85.4872L767.704 84.5268C766.397 79.2415 763.77 75.0287 759.773 72.031L757.373 75.231ZM765.762 83.007H753.833V87.007H765.762V83.007ZM755.731 84.3745C754.973 82.1006 753.642 80.2557 751.73 78.9366L749.459 82.2294C750.601 83.0169 751.43 84.1214 751.936 85.6395L755.731 84.3745ZM751.794 78.983C749.908 77.5686 747.62 76.924 745.064 76.924V80.924C746.932 80.924 748.331 81.3854 749.394 82.183L751.794 78.983ZM745.064 76.924C741.342 76.924 738.245 78.3249 735.994 81.155L739.124 83.645C740.56 81.8404 742.466 80.924 745.064 80.924V76.924ZM736.008 81.1375C733.77 83.8872 732.794 87.6423 732.794 92.117H736.794C736.794 88.1651 737.662 85.4421 739.11 83.6625L736.008 81.1375ZM732.794 92.117C732.794 96.5501 733.775 100.289 735.994 103.079L739.124 100.589C737.657 98.7444 736.794 96.0052 736.794 92.117H732.794ZM736.008 103.097C738.265 105.87 741.359 107.231 745.064 107.231V103.231C742.449 103.231 740.539 102.327 739.11 100.571L736.008 103.097ZM745.064 107.231C747.599 107.231 749.871 106.662 751.744 105.38C753.626 104.092 754.929 102.202 755.725 99.8744L751.941 98.5796C751.368 100.255 750.525 101.367 749.484 102.08C748.433 102.799 747.006 103.231 745.064 103.231V107.231ZM753.833 101.227H765.762V97.227H753.833V101.227ZM763.824 98.7318C762.714 103.078 760.548 106.449 757.344 108.947L759.803 112.101C763.761 109.016 766.388 104.856 767.7 99.7222L763.824 98.7318ZM757.344 108.947C754.175 111.416 750.154 112.711 745.143 112.711V116.711C750.876 116.711 755.809 115.214 759.803 112.101L757.344 108.947ZM745.143 112.711C741.231 112.711 737.838 111.858 734.908 110.204L732.942 113.688C736.543 115.72 740.629 116.711 745.143 116.711V112.711ZM734.929 110.216C731.986 108.507 729.688 106.143 728.017 103.086L724.507 105.006C726.523 108.691 729.334 111.593 732.921 113.676L734.929 110.216ZM728.023 103.098C726.361 100.011 725.497 96.3702 725.497 92.117H721.497C721.497 96.9225 722.477 101.235 724.501 104.994L728.023 103.098ZM780.975 112.815L780.134 114.63L780.148 114.636L780.162 114.643L780.975 112.815ZM774.181 107.522L772.571 108.71L772.581 108.722L772.59 108.734L774.181 107.522ZM771.495 100.175V98.175H769.373L769.498 100.292L771.495 100.175ZM782.634 100.175L784.618 99.9269L784.399 98.175H782.634V100.175ZM785.083 104.362L783.855 105.941L783.869 105.951L783.883 105.962L785.083 104.362ZM795.432 104.757L794.289 103.115L794.272 103.127L794.255 103.14L795.432 104.757ZM795.037 98.358L794.116 100.134L794.155 100.154L794.194 100.172L795.037 98.358ZM788.164 95.988L788.679 94.0555L788.656 94.0495L788.634 94.0441L788.164 95.988ZM780.106 93.539L779.346 95.3893L779.355 95.3927L779.363 95.396L780.106 93.539ZM774.734 89.668L773.209 90.962L773.22 90.9752L773.231 90.9882L774.734 89.668ZM774.576 76.001L772.945 74.8426L772.935 74.857L772.925 74.8716L774.576 76.001ZM780.58 71.261L779.774 69.4304L779.767 69.4334L779.76 69.4365L780.58 71.261ZM802.305 73.473L801.012 74.9988L801.019 75.0052L801.027 75.0116L802.305 73.473ZM807.44 83.98V85.98H809.588L809.435 83.8375L807.44 83.98ZM796.854 83.98L794.862 84.1611L795.027 85.98H796.854V83.98ZM794.642 79.872L793.361 81.4084L793.396 81.4372L793.431 81.4643L794.642 79.872ZM784.846 79.398L783.736 77.7339L783.717 77.7465L783.699 77.7595L784.846 79.398ZM785.478 85.876L784.533 87.639L784.558 87.6523L784.583 87.6649L785.478 85.876ZM792.351 88.167L791.858 90.1054L791.865 90.1073L792.351 88.167ZM800.172 90.616L799.412 92.4663L800.172 90.616ZM805.465 94.566L803.921 95.8374L803.941 95.8622L803.962 95.8862L805.465 94.566ZM807.835 101.518H809.835V101.5L809.834 101.482L807.835 101.518ZM805.702 108.312L804.071 107.154L804.061 107.168L804.051 107.183L805.702 108.312ZM799.698 113.052L800.485 114.89L800.494 114.887L800.503 114.883L799.698 113.052ZM790.613 112.711C787.269 112.711 784.339 112.122 781.787 110.987L780.162 114.643C783.298 116.036 786.793 116.711 790.613 116.711V112.711ZM781.815 111C779.228 109.803 777.235 108.231 775.771 106.31L772.59 108.734C774.496 111.237 777.033 113.194 780.134 114.63L781.815 111ZM775.79 106.334C774.382 104.427 773.626 102.348 773.491 100.058L769.498 100.292C769.679 103.374 770.714 106.193 772.571 108.71L775.79 106.334ZM771.495 102.175H782.634V98.175H771.495V102.175ZM780.649 100.423C780.93 102.669 782.042 104.531 783.855 105.941L786.31 102.783C785.279 101.981 784.759 101.052 784.618 99.9269L780.649 100.423ZM783.883 105.962C785.76 107.37 788.018 108.021 790.534 108.021V104.021C788.73 104.021 787.354 103.566 786.283 102.762L783.883 105.962ZM790.534 108.021C792.873 108.021 794.981 107.558 796.608 106.374L794.255 103.14C793.565 103.641 792.407 104.021 790.534 104.021V108.021ZM796.574 106.399C798.247 105.235 799.249 103.576 799.249 101.518H795.249C795.249 102.093 795.039 102.594 794.289 103.115L796.574 106.399ZM799.249 101.518C799.249 100.442 798.963 99.4128 798.334 98.5146C797.717 97.6324 796.852 96.996 795.879 96.544L794.194 100.172C794.695 100.405 794.937 100.637 795.057 100.808C795.166 100.964 795.249 101.172 795.249 101.518H799.249ZM795.957 96.5825C794.332 95.74 791.866 94.9054 788.679 94.0555L787.648 97.9205C790.781 98.756 792.897 99.5014 794.116 100.134L795.957 96.5825ZM788.634 94.0441C785.422 93.267 782.835 92.4768 780.848 91.682L779.363 95.396C781.589 96.2865 784.375 97.129 787.693 97.9319L788.634 94.0441ZM780.865 91.6887C779.108 90.968 777.569 89.8642 776.236 88.3478L773.231 90.9882C774.953 92.9478 776.995 94.4246 779.346 95.3893L780.865 91.6887ZM776.259 88.374C775.171 87.0927 774.522 85.2544 774.522 82.637H770.522C770.522 85.9183 771.346 88.7673 773.209 90.962L776.259 88.374ZM774.522 82.637C774.522 80.6178 775.084 78.7994 776.226 77.1304L772.925 74.8716C771.328 77.2053 770.522 79.8109 770.522 82.637H774.522ZM776.206 77.1594C777.392 75.4902 779.093 74.1209 781.399 73.0855L779.76 69.4365C776.905 70.7184 774.603 72.5092 772.945 74.8426L776.206 77.1594ZM781.385 73.0916C783.714 72.0669 786.51 71.523 789.823 71.523V67.523C786.078 67.523 782.712 68.1377 779.774 69.4304L781.385 73.0916ZM789.823 71.523C794.699 71.523 798.357 72.7492 801.012 74.9988L803.598 71.9472C800.037 68.9301 795.374 67.523 789.823 67.523V71.523ZM801.027 75.0116C803.671 77.208 805.163 80.1831 805.445 84.1225L809.435 83.8375C809.084 78.9289 807.152 74.8994 803.582 71.9344L801.027 75.0116ZM807.44 81.98H796.854V85.98H807.44V81.98ZM798.845 83.7989C798.64 81.5365 797.643 79.6408 795.852 78.2797L793.431 81.4643C794.274 82.1046 794.751 82.9475 794.862 84.1611L798.845 83.7989ZM795.922 78.3356C794.199 76.9 791.986 76.292 789.507 76.292V80.292C791.346 80.292 792.556 80.7373 793.361 81.4084L795.922 78.3356ZM789.507 76.292C787.297 76.292 785.298 76.6928 783.736 77.7339L785.955 81.0621C786.605 80.6285 787.713 80.292 789.507 80.292V76.292ZM783.699 77.7595C782.096 78.8817 781.266 80.5284 781.266 82.479H785.266C785.266 81.7963 785.489 81.3889 785.992 81.0365L783.699 77.7595ZM781.266 82.479C781.266 83.567 781.543 84.6051 782.143 85.5256C782.734 86.4331 783.569 87.1225 784.533 87.639L786.422 84.113C785.911 83.8395 785.641 83.5677 785.495 83.3429C785.357 83.131 785.266 82.8657 785.266 82.479H781.266ZM784.583 87.6649C786.256 88.5011 788.716 89.3065 791.858 90.1053L792.843 86.2287C789.771 85.4475 787.649 84.7256 786.372 84.0871L784.583 87.6649ZM791.865 90.1073C794.971 90.8837 797.478 91.6728 799.412 92.4663L800.931 88.7657C798.757 87.8739 796.05 87.0303 792.836 86.2267L791.865 90.1073ZM799.412 92.4663C801.147 93.178 802.646 94.2897 803.921 95.8374L807.008 93.2946C805.334 91.261 803.304 89.7393 800.931 88.7657L799.412 92.4663ZM803.962 95.8862C805.104 97.186 805.789 99.008 805.835 101.554L809.834 101.482C809.775 98.2346 808.879 95.422 806.967 93.2458L803.962 95.8862ZM805.835 101.518C805.835 103.644 805.245 105.501 804.071 107.154L807.332 109.47C809.002 107.12 809.835 104.448 809.835 101.518H805.835ZM804.051 107.183C802.929 108.823 801.248 110.185 798.892 111.221L800.503 114.883C803.414 113.602 805.736 111.804 807.352 109.441L804.051 107.183ZM798.91 111.214C796.63 112.191 793.88 112.711 790.613 112.711V116.711C794.297 116.711 797.604 116.125 800.485 114.89L798.91 111.214ZM844.349 112.578L843.557 114.415L843.568 114.42L844.349 112.578ZM837.081 106.89L835.46 108.062L837.081 106.89ZM834.316 98.121V96.121H832.284L832.316 98.1522L834.316 98.121ZM846.166 98.121L848.161 97.9818L848.031 96.121H846.166V98.121ZM848.536 103.493L847.177 104.961L847.19 104.973L847.204 104.985L848.536 103.493ZM860.623 103.651L861.892 105.196L861.908 105.183L861.924 105.17L860.623 103.651ZM861.334 94.724L859.884 96.1015L861.334 94.724ZM857.542 92.275L856.754 94.1133L856.793 94.13L856.832 94.145L857.542 92.275ZM851.38 90.221L850.815 92.1397L850.828 92.1434L850.84 92.1469L851.38 90.221ZM842.611 87.14L841.751 88.9457L841.776 88.9579L841.802 88.9694L842.611 87.14ZM836.844 82.479L835.244 83.679L835.26 83.7015L835.278 83.7235L836.844 82.479ZM836.923 65.573L838.581 66.6907L836.923 65.573ZM843.796 60.043L844.583 61.8813L844.597 61.8754L844.611 61.8693L843.796 60.043ZM867.733 62.255L866.492 63.8236L866.505 63.8337L866.518 63.8437L867.733 62.255ZM873.658 73.789V75.789H875.812L875.652 73.6405L873.658 73.789ZM861.492 73.789L859.495 73.8999L859.6 75.789H861.492V73.789ZM859.043 69.128L857.741 70.6465L857.77 70.6713L857.8 70.695L859.043 69.128ZM847.904 68.891L846.617 67.3596L846.602 67.3726L846.587 67.3858L847.904 68.891ZM847.43 77.423L845.978 78.7985L846.015 78.8377L846.054 78.8749L847.43 77.423ZM851.064 79.793L850.251 81.6206L850.291 81.6385L850.332 81.6545L851.064 79.793ZM857.226 81.847L856.651 83.7627L856.661 83.7657L857.226 81.847ZM871.841 89.747L870.26 90.9721L871.841 89.747ZM871.999 106.258L870.287 105.224L871.999 106.258ZM865.284 112.341L866.178 114.13L866.191 114.124L866.203 114.117L865.284 112.341ZM854.777 112.553C851.163 112.553 847.957 111.935 845.129 110.736L843.568 114.42C846.955 115.854 850.701 116.553 854.777 116.553V112.553ZM845.14 110.741C842.386 109.554 840.262 107.875 838.701 105.718L835.46 108.062C837.481 110.855 840.202 112.968 843.557 114.415L845.14 110.741ZM838.701 105.718C837.176 103.609 836.362 101.095 836.315 98.0898L832.316 98.1522C832.374 101.889 833.404 105.22 835.46 108.062L838.701 105.718ZM834.316 100.121H846.166V96.121H834.316V100.121ZM844.17 98.2602C844.357 100.94 845.318 103.24 847.177 104.961L849.894 102.025C848.909 101.113 848.29 99.8318 848.161 97.9818L844.17 98.2602ZM847.204 104.985C849.138 106.712 851.661 107.468 854.54 107.468V103.468C852.362 103.468 850.883 102.907 849.868 102.001L847.204 104.985ZM854.54 107.468C857.42 107.468 859.951 106.791 861.892 105.196L859.353 102.106C858.345 102.934 856.82 103.468 854.54 103.468V107.468ZM861.924 105.17C863.857 103.512 864.835 101.318 864.835 98.753H860.835C860.835 100.191 860.337 101.262 859.321 102.132L861.924 105.17ZM864.835 98.753C864.835 96.6764 864.182 94.8185 862.784 93.3465L859.884 96.1015C860.487 96.7361 860.835 97.5643 860.835 98.753H864.835ZM862.784 93.3465C861.552 92.0498 860.024 91.0775 858.251 90.405L856.832 94.145C858.114 94.6312 859.114 95.2915 859.884 96.1015L862.784 93.3465ZM858.329 90.4367C856.737 89.7543 854.587 89.0421 851.919 88.2951L850.84 92.1469C853.439 92.8745 855.397 93.5317 856.754 94.1133L858.329 90.4367ZM851.944 88.3023C848.409 87.2625 845.575 86.2635 843.419 85.3106L841.802 88.9694C844.175 90.0179 847.188 91.0729 850.815 92.1397L851.944 88.3023ZM843.47 85.3343C841.553 84.421 839.866 83.0674 838.409 81.2345L835.278 83.7235C837.086 85.9986 839.245 87.7523 841.751 88.9457L843.47 85.3343ZM838.444 81.279C837.195 79.6147 836.474 77.2863 836.474 74.105H832.474C832.474 77.8757 833.332 81.13 835.244 83.679L838.444 81.279ZM836.474 74.105C836.474 71.1893 837.197 68.7449 838.581 66.6907L835.264 64.4553C833.383 67.2464 832.474 70.4901 832.474 74.105H836.474ZM838.581 66.6907C839.978 64.618 841.951 63.0093 844.583 61.8813L843.008 58.2047C839.741 59.6047 837.133 61.6826 835.264 64.4553L838.581 66.6907ZM844.611 61.8693C847.263 60.6853 850.348 60.068 853.908 60.068V56.068C849.883 56.068 846.227 56.7673 842.98 58.2167L844.611 61.8693ZM853.908 60.068C859.266 60.068 863.401 61.3785 866.492 63.8236L868.973 60.6864C865.007 57.5488 859.925 56.068 853.908 56.068V60.068ZM866.518 63.8437C869.597 66.1982 871.332 69.4917 871.663 73.9375L875.652 73.6405C875.246 68.1849 873.031 63.7892 868.948 60.6663L866.518 63.8437ZM873.658 71.789H861.492V75.789H873.658V71.789ZM863.489 73.6781C863.351 71.1941 862.247 69.1168 860.285 67.561L857.8 70.695C858.893 71.5618 859.422 72.5919 859.495 73.8999L863.489 73.6781ZM860.344 67.6095C858.417 65.9572 855.936 65.232 853.118 65.232V69.232C855.25 69.232 856.719 69.7708 857.741 70.6465L860.344 67.6095ZM853.118 65.232C850.611 65.232 848.379 65.8799 846.617 67.3596L849.19 70.4224C850.062 69.6901 851.305 69.232 853.118 69.232V65.232ZM846.587 67.3858C844.782 68.9646 844.008 71.1847 844.008 73.71H848.008C848.008 72.0219 848.497 71.0294 849.221 70.3961L846.587 67.3858ZM844.008 73.71C844.008 75.6572 844.652 77.3988 845.978 78.7985L848.882 76.0475C848.312 75.4459 848.008 74.7122 848.008 73.71H844.008ZM846.054 78.8749C847.24 79.998 848.648 80.9081 850.251 81.6206L851.876 77.9654C850.635 77.4139 849.621 76.744 848.805 75.9711L846.054 78.8749ZM850.332 81.6545C851.882 82.2635 853.997 82.9665 856.651 83.7626L857.8 79.9314C855.188 79.1475 853.194 78.4812 851.795 77.9315L850.332 81.6545ZM856.661 83.7657C860.189 84.8033 863.009 85.8242 865.151 86.8204L866.838 83.1936C864.451 82.0832 861.425 80.9974 857.79 79.9283L856.661 83.7657ZM865.151 86.8204C867.107 87.7303 868.809 89.1002 870.26 90.9721L873.421 88.5219C871.607 86.1805 869.411 84.3904 866.838 83.1936L865.151 86.8204ZM870.26 90.9721C871.552 92.6393 872.29 94.9348 872.29 98.042H876.29C876.29 94.3025 875.395 91.068 873.421 88.5219L870.26 90.9721ZM872.29 98.042C872.29 100.626 871.626 103.007 870.287 105.224L873.71 107.292C875.426 104.453 876.29 101.356 876.29 98.042H872.29ZM870.287 105.224C868.973 107.398 867.028 109.186 864.364 110.565L866.203 114.117C869.438 112.442 871.97 110.174 873.71 107.292L870.287 105.224ZM864.389 110.552C861.774 111.86 858.592 112.553 854.777 112.553V116.553C859.072 116.553 862.894 115.772 866.178 114.13L864.389 110.552ZM891.936 111.946L890.956 113.689L890.966 113.695L890.977 113.701L891.936 111.946ZM883.957 103.967L882.208 104.936L882.213 104.946L882.219 104.956L883.957 103.967ZM884.036 80.267L882.31 79.2576L882.304 79.2676L882.298 79.2776L884.036 80.267ZM892.173 72.367L893.121 74.1279L893.132 74.1223L893.142 74.1166L892.173 72.367ZM915.083 72.367L914.114 74.1166L914.125 74.1223L914.135 74.1279L915.083 72.367ZM923.141 80.267L921.403 81.2564L921.409 81.2664L921.415 81.2764L923.141 80.267ZM923.062 103.967L921.347 102.938L921.341 102.948L921.336 102.958L923.062 103.967ZM914.846 111.946L915.794 113.707L915.804 113.702L914.846 111.946ZM908.921 103.651L909.879 105.407L909.888 105.402L909.897 105.397L908.921 103.651ZM913.187 99.227L914.947 100.178L913.187 99.227ZM911.449 82.558L910.002 83.9381L910.018 83.9554L910.035 83.9722L911.449 82.558ZM895.491 82.558L894.044 81.1778L894.043 81.1787L895.491 82.558ZM895.412 101.755L893.931 103.099L893.947 103.117L893.964 103.134L895.412 101.755ZM903.312 112.711C899.401 112.711 895.944 111.858 892.896 110.191L890.977 113.701C894.669 115.72 898.797 116.711 903.312 116.711V112.711ZM892.917 110.203C889.868 108.488 887.468 106.092 885.695 102.978L882.219 104.956C884.344 108.689 887.263 111.612 890.956 113.689L892.917 110.203ZM885.707 102.998C883.997 99.9116 883.113 96.3041 883.113 92.117H879.113C879.113 96.8833 880.125 101.176 882.208 104.936L885.707 102.998ZM883.113 92.117C883.113 87.9391 884.02 84.339 885.774 81.2564L882.298 79.2776C880.156 83.0417 879.113 87.3415 879.113 92.117H883.113ZM885.763 81.2764C887.583 78.1637 890.028 75.7934 893.121 74.1279L891.225 70.6061C887.471 72.6272 884.493 75.5236 882.31 79.2576L885.763 81.2764ZM893.142 74.1166C896.246 72.3973 899.727 71.523 903.628 71.523V67.523C899.103 67.523 894.947 68.5447 891.204 70.6174L893.142 74.1166ZM903.628 71.523C907.529 71.523 911.01 72.3973 914.114 74.1166L916.052 70.6174C912.31 68.5447 908.154 67.523 903.628 67.523V71.523ZM914.135 74.1279C917.223 75.7909 919.638 78.1547 921.403 81.2564L924.879 79.2776C922.748 75.5326 919.79 72.6298 916.031 70.6061L914.135 74.1279ZM921.415 81.2764C923.215 84.3555 924.143 87.9484 924.143 92.117H928.143C928.143 87.3323 927.07 83.0251 924.868 79.2576L921.415 81.2764ZM924.143 92.117C924.143 96.2763 923.193 99.862 921.347 102.938L924.777 104.996C927.04 101.225 928.143 96.9111 928.143 92.117H924.143ZM921.336 102.958C919.518 106.067 917.045 108.469 913.889 110.19L915.804 113.702C919.6 111.631 922.604 108.713 924.789 104.976L921.336 102.958ZM913.898 110.185C910.794 111.857 907.28 112.711 903.312 112.711V116.711C907.876 116.711 912.052 115.722 915.794 113.707L913.898 110.185ZM903.312 107.073C905.644 107.073 907.844 106.517 909.879 105.407L907.964 101.895C906.523 102.681 904.983 103.073 903.312 103.073V107.073ZM909.897 105.397C912.045 104.196 913.728 102.433 914.947 100.178L911.428 98.276C910.54 99.9184 909.378 101.104 907.946 101.905L909.897 105.397ZM914.947 100.178C916.194 97.8709 916.767 95.1557 916.767 92.117H912.767C912.767 94.6609 912.287 96.6858 911.428 98.276L914.947 100.178ZM916.767 92.117C916.767 87.6069 915.562 83.8419 912.863 81.1438L910.035 83.9722C911.761 85.6981 912.767 88.3057 912.767 92.117H916.767ZM912.897 81.1778C910.356 78.5129 907.171 77.161 903.47 77.161V81.161C906.089 81.161 908.224 82.0737 910.002 83.9381L912.897 81.1778ZM903.47 77.161C899.769 77.161 896.585 78.5129 894.044 81.1778L896.939 83.9381C898.716 82.0737 900.851 81.161 903.47 81.161V77.161ZM894.043 81.1787C891.47 83.8801 890.331 87.632 890.331 92.117H894.331C894.331 88.2807 895.299 85.6599 896.94 83.9373L894.043 81.1787ZM890.331 92.117C890.331 96.5932 891.439 100.351 893.931 103.099L896.894 100.411C895.278 98.6298 894.331 95.9621 894.331 92.117H890.331ZM893.964 103.134C896.463 105.758 899.626 107.073 903.312 107.073V103.073C900.678 103.073 898.575 102.176 896.861 100.376L893.964 103.134ZM945.316 55.54H947.316V53.54H945.316V55.54ZM945.316 114V116H947.316V114H945.316ZM934.256 114H932.256V116H934.256V114ZM934.256 55.54V53.54H932.256V55.54H934.256ZM943.316 55.54V114H947.316V55.54H943.316ZM945.316 112H934.256V116H945.316V112ZM936.256 114V55.54H932.256V114H936.256ZM934.256 57.54H945.316V53.54H934.256V57.54ZM997.56 70.234H999.56V68.234H997.56V70.234ZM997.56 114V116H999.56V114H997.56ZM986.422 114H984.422V116H986.422V114ZM986.422 108.47H988.422V102.47L984.821 107.27L986.422 108.47ZM980.812 112.973L981.656 114.786L981.665 114.782L981.674 114.778L980.812 112.973ZM964.301 112.42L963.324 114.165L963.338 114.173L963.351 114.18L964.301 112.42ZM958.06 106.021L956.285 106.942L956.295 106.961L956.306 106.981L958.06 106.021ZM955.849 70.234V68.234H953.849V70.234H955.849ZM966.909 70.234H968.909V68.234H966.909V70.234ZM969.516 102.387L968.041 103.738L968.051 103.749L968.06 103.759L969.516 102.387ZM983.814 102.387L985.27 103.759L985.279 103.749L985.289 103.738L983.814 102.387ZM986.422 70.234V68.234H984.422V70.234H986.422ZM995.56 70.234V114H999.56V70.234H995.56ZM997.56 112H986.422V116H997.56V112ZM988.422 114V108.47H984.422V114H988.422ZM984.821 107.27C983.609 108.886 982.002 110.189 979.951 111.168L981.674 114.778C984.258 113.545 986.39 111.846 988.021 109.67L984.821 107.27ZM979.969 111.16C977.988 112.081 975.803 112.553 973.386 112.553V116.553C976.341 116.553 979.108 115.972 981.656 114.786L979.969 111.16ZM973.386 112.553C970.247 112.553 967.554 111.903 965.252 110.66L963.351 114.18C966.316 115.781 969.68 116.553 973.386 116.553V112.553ZM965.279 110.675C962.991 109.394 961.172 107.542 959.815 105.061L956.306 106.981C958.003 110.083 960.345 112.497 963.324 114.165L965.279 110.675ZM959.836 105.1C958.537 102.596 957.849 99.5545 957.849 95.909H953.849C953.849 100.058 954.634 103.758 956.285 106.942L959.836 105.1ZM957.849 95.909V70.234H953.849V95.909H957.849ZM955.849 72.234H966.909V68.234H955.849V72.234ZM964.909 70.234V94.329H968.909V70.234H964.909ZM964.909 94.329C964.909 98.1269 965.861 101.36 968.041 103.738L970.99 101.036C969.694 99.6217 968.909 97.4831 968.909 94.329H964.909ZM968.06 103.759C970.246 106.077 973.183 107.152 976.625 107.152V103.152C974.064 103.152 972.261 102.384 970.971 101.015L968.06 103.759ZM976.625 107.152C980.109 107.152 983.077 106.084 985.27 103.759L982.359 101.015C981.076 102.376 979.252 103.152 976.625 103.152V107.152ZM985.289 103.738C987.469 101.36 988.422 98.1269 988.422 94.329H984.422C984.422 97.4831 983.636 99.6217 982.34 101.036L985.289 103.738ZM988.422 94.329V70.234H984.422V94.329H988.422ZM986.422 72.234H997.56V68.234H986.422V72.234ZM1021.35 79.319V77.319H1019.35V79.319H1021.35ZM1022.38 103.73L1020.96 105.144L1021.02 105.199L1021.08 105.249L1022.38 103.73ZM1031.15 104.678H1033.15V102.678H1031.15V104.678ZM1031.15 114V116H1033.15V114H1031.15ZM1010.21 79.319H1012.21V77.319H1010.21V79.319ZM1005 79.319H1003V81.319H1005V79.319ZM1005 70.234V68.234H1003V70.234H1005ZM1010.21 70.234V72.234H1012.21V70.234H1010.21ZM1010.21 59.411V57.411H1008.21V59.411H1010.21ZM1021.35 59.411H1023.35V57.411H1021.35V59.411ZM1021.35 70.234H1019.35V72.234H1021.35V70.234ZM1031.15 70.234H1033.15V68.234H1031.15V70.234ZM1031.15 79.319V81.319H1033.15V79.319H1031.15ZM1019.35 79.319V100.491H1023.35V79.319H1019.35ZM1019.35 100.491C1019.35 102.224 1019.75 103.928 1020.96 105.144L1023.79 102.316C1023.64 102.163 1023.35 101.708 1023.35 100.491H1019.35ZM1021.08 105.249C1022.36 106.35 1024.17 106.678 1026.01 106.678V102.678C1024.48 102.678 1023.87 102.374 1023.68 102.211L1021.08 105.249ZM1026.01 106.678H1031.15V102.678H1026.01V106.678ZM1029.15 104.678V114H1033.15V104.678H1029.15ZM1031.15 112H1024.19V116H1031.15V112ZM1024.19 112C1019.83 112 1016.92 110.939 1015.1 109.169C1013.29 107.409 1012.21 104.618 1012.21 100.412H1008.21C1008.21 105.264 1009.46 109.268 1012.31 112.037C1015.15 114.797 1019.24 116 1024.19 116V112ZM1012.21 100.412V79.319H1008.21V100.412H1012.21ZM1010.21 77.319H1005V81.319H1010.21V77.319ZM1007 79.319V70.234H1003V79.319H1007ZM1005 72.234H1010.21V68.234H1005V72.234ZM1012.21 70.234V59.411H1008.21V70.234H1012.21ZM1010.21 61.411H1021.35V57.411H1010.21V61.411ZM1019.35 59.411V70.234H1023.35V59.411H1019.35ZM1021.35 72.234H1031.15V68.234H1021.35V72.234ZM1029.15 70.234V79.319H1033.15V70.234H1029.15ZM1031.15 77.319H1021.35V81.319H1031.15V77.319ZM1039.81 63.203L1038.4 64.6172L1038.43 64.6467L1038.46 64.6749L1039.81 63.203ZM1039.81 53.96L1041.2 55.404L1041.2 55.4028L1039.81 53.96ZM1049.53 53.96L1048.11 55.3742L1048.14 55.4037L1048.17 55.4319L1049.53 53.96ZM1049.53 63.203L1050.91 64.647L1050.91 64.6458L1049.53 63.203ZM1050.16 70.234H1052.16V68.234H1050.16V70.234ZM1050.16 114V116H1052.16V114H1050.16ZM1039.1 114H1037.1V116H1039.1V114ZM1039.1 70.234V68.234H1037.1V70.234H1039.1ZM1044.71 63.02C1043.21 63.02 1042.08 62.5713 1041.17 61.7311L1038.46 64.6749C1040.18 66.2574 1042.31 67.02 1044.71 67.02V63.02ZM1041.23 61.7888C1040.35 60.9127 1039.92 59.8734 1039.92 58.542H1035.92C1035.92 60.8973 1036.75 62.9653 1038.4 64.6172L1041.23 61.7888ZM1039.92 58.542C1039.92 57.2116 1040.35 56.2163 1041.2 55.404L1038.43 52.516C1036.75 54.1263 1035.92 56.1858 1035.92 58.542H1039.92ZM1041.2 55.4028C1042.11 54.5221 1043.24 54.064 1044.71 54.064V50.064C1042.28 50.064 1040.14 50.8699 1038.43 52.5172L1041.2 55.4028ZM1044.71 54.064C1046.18 54.064 1047.26 54.5209 1048.11 55.3742L1050.94 52.5458C1049.27 50.871 1047.14 50.064 1044.71 50.064V54.064ZM1048.17 55.4319C1049.07 56.2517 1049.5 57.2388 1049.5 58.542H1053.5C1053.5 56.1585 1052.63 54.091 1050.88 52.4881L1048.17 55.4319ZM1049.5 58.542C1049.5 59.8469 1049.06 60.8776 1048.14 61.7602L1050.91 64.6458C1052.63 63.0004 1053.5 60.9238 1053.5 58.542H1049.5ZM1048.15 61.759C1047.3 62.5719 1046.21 63.02 1044.71 63.02V67.02C1047.11 67.02 1049.23 66.2567 1050.91 64.647L1048.15 61.759ZM1048.16 70.234V114H1052.16V70.234H1048.16ZM1050.16 112H1039.1V116H1050.16V112ZM1041.1 114V70.234H1037.1V114H1041.1ZM1039.1 72.234H1050.16V68.234H1039.1V72.234ZM1069.15 111.946L1068.17 113.689L1068.18 113.695L1068.19 113.701L1069.15 111.946ZM1061.17 103.967L1059.42 104.936L1059.42 104.946L1059.43 104.956L1061.17 103.967ZM1061.25 80.267L1059.52 79.2576L1059.51 79.2676L1059.51 79.2776L1061.25 80.267ZM1069.38 72.367L1070.33 74.1279L1070.34 74.1223L1070.35 74.1166L1069.38 72.367ZM1092.29 72.367L1091.32 74.1166L1091.33 74.1223L1091.34 74.1279L1092.29 72.367ZM1100.35 80.267L1098.61 81.2564L1098.62 81.2664L1098.62 81.2764L1100.35 80.267ZM1100.27 103.967L1098.56 102.938L1098.55 102.948L1098.55 102.958L1100.27 103.967ZM1092.06 111.946L1093 113.707L1093.01 113.702L1092.06 111.946ZM1086.13 103.651L1087.09 105.407L1087.1 105.402L1087.11 105.397L1086.13 103.651ZM1090.4 99.227L1092.16 100.178L1090.4 99.227ZM1088.66 82.558L1087.21 83.9381L1087.23 83.9554L1087.24 83.9722L1088.66 82.558ZM1072.7 82.558L1071.25 81.1778L1071.25 81.1787L1072.7 82.558ZM1072.62 101.755L1071.14 103.099L1071.16 103.117L1071.17 103.134L1072.62 101.755ZM1080.52 112.711C1076.61 112.711 1073.15 111.858 1070.11 110.191L1068.19 113.701C1071.88 115.72 1076.01 116.711 1080.52 116.711V112.711ZM1070.13 110.203C1067.08 108.488 1064.68 106.092 1062.91 102.978L1059.43 104.956C1061.55 108.689 1064.47 111.612 1068.17 113.689L1070.13 110.203ZM1062.92 102.998C1061.21 99.9116 1060.32 96.3041 1060.32 92.117H1056.32C1056.32 96.8833 1057.33 101.176 1059.42 104.936L1062.92 102.998ZM1060.32 92.117C1060.32 87.9391 1061.23 84.339 1062.98 81.2564L1059.51 79.2776C1057.37 83.0417 1056.32 87.3415 1056.32 92.117H1060.32ZM1062.97 81.2764C1064.79 78.1637 1067.24 75.7934 1070.33 74.1279L1068.44 70.6061C1064.68 72.6272 1061.7 75.5236 1059.52 79.2576L1062.97 81.2764ZM1070.35 74.1166C1073.46 72.3973 1076.94 71.523 1080.84 71.523V67.523C1076.31 67.523 1072.16 68.5447 1068.41 70.6174L1070.35 74.1166ZM1080.84 71.523C1084.74 71.523 1088.22 72.3973 1091.32 74.1166L1093.26 70.6174C1089.52 68.5447 1085.36 67.523 1080.84 67.523V71.523ZM1091.34 74.1279C1094.43 75.7909 1096.85 78.1547 1098.61 81.2564L1102.09 79.2776C1099.96 75.5326 1097 72.6298 1093.24 70.6061L1091.34 74.1279ZM1098.62 81.2764C1100.42 84.3555 1101.35 87.9484 1101.35 92.117H1105.35C1105.35 87.3323 1104.28 83.0251 1102.08 79.2576L1098.62 81.2764ZM1101.35 92.117C1101.35 96.2763 1100.4 99.862 1098.56 102.938L1101.99 104.996C1104.25 101.225 1105.35 96.9111 1105.35 92.117H1101.35ZM1098.55 102.958C1096.73 106.067 1094.25 108.469 1091.1 110.19L1093.01 113.702C1096.81 111.631 1099.81 108.713 1102 104.976L1098.55 102.958ZM1091.11 110.185C1088 111.857 1084.49 112.711 1080.52 112.711V116.711C1085.09 116.711 1089.26 115.722 1093 113.707L1091.11 110.185ZM1080.52 107.073C1082.85 107.073 1085.05 106.517 1087.09 105.407L1085.17 101.895C1083.73 102.681 1082.19 103.073 1080.52 103.073V107.073ZM1087.11 105.397C1089.26 104.196 1090.94 102.433 1092.16 100.178L1088.64 98.276C1087.75 99.9184 1086.59 101.104 1085.16 101.905L1087.11 105.397ZM1092.16 100.178C1093.4 97.8709 1093.98 95.1557 1093.98 92.117H1089.98C1089.98 94.6609 1089.5 96.6858 1088.64 98.276L1092.16 100.178ZM1093.98 92.117C1093.98 87.6069 1092.77 83.8419 1090.07 81.1438L1087.24 83.9722C1088.97 85.6981 1089.98 88.3057 1089.98 92.117H1093.98ZM1090.11 81.1778C1087.57 78.5129 1084.38 77.161 1080.68 77.161V81.161C1083.3 81.161 1085.43 82.0737 1087.21 83.9381L1090.11 81.1778ZM1080.68 77.161C1076.98 77.161 1073.79 78.5129 1071.25 81.1778L1074.15 83.9381C1075.93 82.0737 1078.06 81.161 1080.68 81.161V77.161ZM1071.25 81.1787C1068.68 83.8801 1067.54 87.632 1067.54 92.117H1071.54C1071.54 88.2807 1072.51 85.6599 1074.15 83.9373L1071.25 81.1787ZM1067.54 92.117C1067.54 96.5932 1068.65 100.351 1071.14 103.099L1074.1 100.411C1072.49 98.6298 1071.54 95.9621 1071.54 92.117H1067.54ZM1071.17 103.134C1073.67 105.758 1076.84 107.073 1080.52 107.073V103.073C1077.89 103.073 1075.79 102.176 1074.07 100.376L1071.17 103.134ZM1148.36 74.579L1146.92 75.9702L1146.93 75.976L1146.93 75.9817L1148.36 74.579ZM1153.18 114V116H1155.18V114H1153.18ZM1142.12 114H1140.12V116H1142.12V114ZM1139.51 81.847L1138.04 83.1984L1138.05 83.2088L1138.06 83.219L1139.51 81.847ZM1125.13 81.847L1123.68 80.4738L1123.68 80.475L1125.13 81.847ZM1122.53 114V116H1124.53V114H1122.53ZM1111.47 114H1109.47V116H1111.47V114ZM1111.47 70.234V68.234H1109.47V70.234H1111.47ZM1122.53 70.234H1124.53V68.234H1122.53V70.234ZM1122.53 75.685H1120.53V81.5141L1124.1 76.9129L1122.53 75.685ZM1128.14 71.261L1128.98 73.0744L1128.99 73.0702L1129 73.066L1128.14 71.261ZM1135.72 71.602C1140.47 71.602 1144.14 73.0931 1146.92 75.9702L1149.8 73.1878C1146.16 69.4289 1141.4 67.602 1135.72 67.602V71.602ZM1146.93 75.9817C1149.68 78.7739 1151.18 82.7936 1151.18 88.325H1155.18C1155.18 82.059 1153.46 76.9147 1149.78 73.1763L1146.93 75.9817ZM1151.18 88.325V114H1155.18V88.325H1151.18ZM1153.18 112H1142.12V116H1153.18V112ZM1144.12 114V89.826H1140.12V114H1144.12ZM1144.12 89.826C1144.12 86.0322 1143.17 82.809 1140.97 80.475L1138.06 83.219C1139.33 84.5716 1140.12 86.6678 1140.12 89.826H1144.12ZM1140.99 80.4956C1138.8 78.1163 1135.86 77.003 1132.4 77.003V81.003C1134.95 81.003 1136.74 81.7857 1138.04 83.1984L1140.99 80.4956ZM1132.4 77.003C1128.9 77.003 1125.91 78.1088 1123.68 80.4738L1126.59 83.2202C1127.93 81.7932 1129.79 81.003 1132.4 81.003V77.003ZM1123.68 80.475C1121.48 82.809 1120.53 86.0322 1120.53 89.826H1124.53C1124.53 86.6678 1125.31 84.5716 1126.59 83.219L1123.68 80.475ZM1120.53 89.826V114H1124.53V89.826H1120.53ZM1122.53 112H1111.47V116H1122.53V112ZM1113.47 114V70.234H1109.47V114H1113.47ZM1111.47 72.234H1122.53V68.234H1111.47V72.234ZM1120.53 70.234V75.685H1124.53V70.234H1120.53ZM1124.1 76.9129C1125.38 75.2778 1126.99 73.9993 1128.98 73.0744L1127.29 69.4476C1124.75 70.6294 1122.62 72.3002 1120.95 74.4571L1124.1 76.9129ZM1129 73.066C1131.03 72.0968 1133.26 71.602 1135.72 71.602V67.602C1132.7 67.602 1129.88 68.2132 1127.27 69.456L1129 73.066ZM1170.81 112.815L1169.97 114.63L1169.98 114.636L1169.99 114.643L1170.81 112.815ZM1164.01 107.522L1162.4 108.71L1162.41 108.722L1162.42 108.734L1164.01 107.522ZM1161.33 100.175V98.175H1159.2L1159.33 100.292L1161.33 100.175ZM1172.46 100.175L1174.45 99.9269L1174.23 98.175H1172.46V100.175ZM1174.91 104.362L1173.69 105.941L1173.7 105.951L1173.71 105.962L1174.91 104.362ZM1185.26 104.757L1184.12 103.115L1184.1 103.127L1184.09 103.14L1185.26 104.757ZM1184.87 98.358L1183.95 100.134L1183.99 100.154L1184.03 100.172L1184.87 98.358ZM1177.99 95.988L1178.51 94.0555L1178.49 94.0495L1178.46 94.0441L1177.99 95.988ZM1169.94 93.539L1169.18 95.3893L1169.19 95.3927L1169.19 95.396L1169.94 93.539ZM1164.56 89.668L1163.04 90.962L1163.05 90.9752L1163.06 90.9882L1164.56 89.668ZM1164.41 76.001L1162.78 74.8426L1162.77 74.857L1162.76 74.8716L1164.41 76.001ZM1170.41 71.261L1169.61 69.4304L1169.6 69.4334L1169.59 69.4365L1170.41 71.261ZM1192.14 73.473L1190.84 74.9988L1190.85 75.0052L1190.86 75.0116L1192.14 73.473ZM1197.27 83.98V85.98H1199.42L1199.27 83.8375L1197.27 83.98ZM1186.68 83.98L1184.69 84.1611L1184.86 85.98H1186.68V83.98ZM1184.47 79.872L1183.19 81.4084L1183.23 81.4372L1183.26 81.4643L1184.47 79.872ZM1174.68 79.398L1173.57 77.7339L1173.55 77.7465L1173.53 77.7595L1174.68 79.398ZM1175.31 85.876L1174.36 87.639L1174.39 87.6523L1174.41 87.6649L1175.31 85.876ZM1182.18 88.167L1181.69 90.1054L1181.7 90.1073L1182.18 88.167ZM1190 90.616L1189.24 92.4663L1190 90.616ZM1195.3 94.566L1193.75 95.8374L1193.77 95.8622L1193.79 95.8862L1195.3 94.566ZM1197.67 101.518H1199.67V101.5L1199.67 101.482L1197.67 101.518ZM1195.53 108.312L1193.9 107.154L1193.89 107.168L1193.88 107.183L1195.53 108.312ZM1189.53 113.052L1190.32 114.89L1190.33 114.887L1190.33 114.883L1189.53 113.052ZM1180.44 112.711C1177.1 112.711 1174.17 112.122 1171.62 110.987L1169.99 114.643C1173.13 116.036 1176.62 116.711 1180.44 116.711V112.711ZM1171.65 111C1169.06 109.803 1167.07 108.231 1165.6 106.31L1162.42 108.734C1164.33 111.237 1166.86 113.194 1169.97 114.63L1171.65 111ZM1165.62 106.334C1164.21 104.427 1163.46 102.348 1163.32 100.058L1159.33 100.292C1159.51 103.374 1160.55 106.193 1162.4 108.71L1165.62 106.334ZM1161.33 102.175H1172.46V98.175H1161.33V102.175ZM1170.48 100.423C1170.76 102.669 1171.87 104.531 1173.69 105.941L1176.14 102.783C1175.11 101.981 1174.59 101.052 1174.45 99.9269L1170.48 100.423ZM1173.71 105.962C1175.59 107.37 1177.85 108.021 1180.36 108.021V104.021C1178.56 104.021 1177.19 103.566 1176.11 102.762L1173.71 105.962ZM1180.36 108.021C1182.7 108.021 1184.81 107.558 1186.44 106.374L1184.09 103.14C1183.4 103.641 1182.24 104.021 1180.36 104.021V108.021ZM1186.4 106.399C1188.08 105.235 1189.08 103.576 1189.08 101.518H1185.08C1185.08 102.093 1184.87 102.594 1184.12 103.115L1186.4 106.399ZM1189.08 101.518C1189.08 100.442 1188.79 99.4128 1188.17 98.5146C1187.55 97.6324 1186.68 96.996 1185.71 96.544L1184.03 100.172C1184.53 100.405 1184.77 100.637 1184.89 100.808C1185 100.964 1185.08 101.172 1185.08 101.518H1189.08ZM1185.79 96.5825C1184.16 95.74 1181.7 94.9054 1178.51 94.0555L1177.48 97.9205C1180.61 98.756 1182.73 99.5014 1183.95 100.134L1185.79 96.5825ZM1178.46 94.0441C1175.25 93.267 1172.67 92.4768 1170.68 91.682L1169.19 95.396C1171.42 96.2865 1174.21 97.129 1177.52 97.9319L1178.46 94.0441ZM1170.7 91.6887C1168.94 90.968 1167.4 89.8642 1166.07 88.3478L1163.06 90.9882C1164.78 92.9478 1166.83 94.4246 1169.18 95.3893L1170.7 91.6887ZM1166.09 88.374C1165 87.0927 1164.35 85.2544 1164.35 82.637H1160.35C1160.35 85.9183 1161.18 88.7673 1163.04 90.962L1166.09 88.374ZM1164.35 82.637C1164.35 80.6178 1164.92 78.7994 1166.06 77.1304L1162.76 74.8716C1161.16 77.2053 1160.35 79.8109 1160.35 82.637H1164.35ZM1166.04 77.1594C1167.22 75.4902 1168.92 74.1209 1171.23 73.0855L1169.59 69.4365C1166.74 70.7184 1164.43 72.5092 1162.78 74.8426L1166.04 77.1594ZM1171.22 73.0916C1173.54 72.0669 1176.34 71.523 1179.65 71.523V67.523C1175.91 67.523 1172.54 68.1377 1169.61 69.4304L1171.22 73.0916ZM1179.65 71.523C1184.53 71.523 1188.19 72.7492 1190.84 74.9988L1193.43 71.9472C1189.87 68.9301 1185.21 67.523 1179.65 67.523V71.523ZM1190.86 75.0116C1193.5 77.208 1194.99 80.1831 1195.28 84.1225L1199.27 83.8375C1198.91 78.9289 1196.98 74.8994 1193.41 71.9344L1190.86 75.0116ZM1197.27 81.98H1186.68V85.98H1197.27V81.98ZM1188.68 83.7989C1188.47 81.5365 1187.47 79.6408 1185.68 78.2797L1183.26 81.4643C1184.1 82.1046 1184.58 82.9475 1184.69 84.1611L1188.68 83.7989ZM1185.75 78.3356C1184.03 76.9 1181.82 76.292 1179.34 76.292V80.292C1181.18 80.292 1182.39 80.7373 1183.19 81.4084L1185.75 78.3356ZM1179.34 76.292C1177.13 76.292 1175.13 76.6928 1173.57 77.7339L1175.79 81.0621C1176.44 80.6285 1177.54 80.292 1179.34 80.292V76.292ZM1173.53 77.7595C1171.93 78.8817 1171.1 80.5284 1171.1 82.479H1175.1C1175.1 81.7963 1175.32 81.3889 1175.82 81.0365L1173.53 77.7595ZM1171.1 82.479C1171.1 83.567 1171.37 84.6051 1171.97 85.5256C1172.56 86.4331 1173.4 87.1225 1174.36 87.639L1176.25 84.113C1175.74 83.8395 1175.47 83.5677 1175.33 83.3429C1175.19 83.131 1175.1 82.8657 1175.1 82.479H1171.1ZM1174.41 87.6649C1176.09 88.5011 1178.55 89.3065 1181.69 90.1053L1182.67 86.2287C1179.6 85.4475 1177.48 84.7256 1176.2 84.0871L1174.41 87.6649ZM1181.7 90.1073C1184.8 90.8837 1187.31 91.6728 1189.24 92.4663L1190.76 88.7657C1188.59 87.8739 1185.88 87.0303 1182.67 86.2267L1181.7 90.1073ZM1189.24 92.4663C1190.98 93.178 1192.48 94.2897 1193.75 95.8374L1196.84 93.2946C1195.16 91.261 1193.14 89.7393 1190.76 88.7657L1189.24 92.4663ZM1193.79 95.8862C1194.94 97.186 1195.62 99.008 1195.67 101.554L1199.67 101.482C1199.61 98.2346 1198.71 95.422 1196.8 93.2458L1193.79 95.8862ZM1195.67 101.518C1195.67 103.644 1195.08 105.501 1193.9 107.154L1197.16 109.47C1198.83 107.12 1199.67 104.448 1199.67 101.518H1195.67ZM1193.88 107.183C1192.76 108.823 1191.08 110.185 1188.72 111.221L1190.33 114.883C1193.24 113.602 1195.57 111.804 1197.18 109.441L1193.88 107.183ZM1188.74 111.214C1186.46 112.191 1183.71 112.711 1180.44 112.711V116.711C1184.13 116.711 1187.44 116.125 1190.32 114.89L1188.74 111.214ZM1206.67 112.736L1205.25 114.15L1205.28 114.18L1205.31 114.208L1206.67 112.736ZM1206.67 103.493L1208.05 104.937L1208.05 104.936L1206.67 103.493ZM1216.46 103.493L1215.05 104.907L1215.06 104.922L1215.08 104.937L1216.46 103.493ZM1216.46 112.736L1217.85 114.18L1217.86 114.165L1217.88 114.15L1216.46 112.736ZM1206.67 80.03L1205.25 81.4442L1205.28 81.4737L1205.31 81.5019L1206.67 80.03ZM1206.67 70.787L1208.05 72.231L1208.05 72.2298L1206.67 70.787ZM1216.46 70.787L1215.05 72.2012L1215.06 72.2163L1215.08 72.231L1216.46 70.787ZM1216.46 80.03L1217.85 81.474L1217.86 81.4593L1217.88 81.4442L1216.46 80.03ZM1211.64 112.553C1210.08 112.553 1208.92 112.095 1208.02 111.264L1205.31 114.208C1207.04 115.8 1209.2 116.553 1211.64 116.553V112.553ZM1208.08 111.322C1207.2 110.446 1206.77 109.406 1206.77 108.075H1202.77C1202.77 110.43 1203.6 112.498 1205.25 114.15L1208.08 111.322ZM1206.77 108.075C1206.77 106.745 1207.2 105.749 1208.05 104.937L1205.28 102.049C1203.6 103.659 1202.77 105.719 1202.77 108.075H1206.77ZM1208.05 104.936C1208.96 104.065 1210.1 103.597 1211.64 103.597V99.597C1209.18 99.597 1207.01 100.393 1205.28 102.05L1208.05 104.936ZM1211.64 103.597C1213.11 103.597 1214.19 104.054 1215.05 104.907L1217.88 102.079C1216.2 100.404 1214.07 99.597 1211.64 99.597V103.597ZM1215.08 104.937C1215.93 105.749 1216.36 106.745 1216.36 108.075H1220.36C1220.36 105.719 1219.53 103.659 1217.85 102.049L1215.08 104.937ZM1216.36 108.075C1216.36 109.406 1215.92 110.446 1215.05 111.322L1217.88 114.15C1219.53 112.498 1220.36 110.43 1220.36 108.075H1216.36ZM1215.08 111.292C1214.23 112.105 1213.14 112.553 1211.64 112.553V116.553C1214.04 116.553 1216.17 115.79 1217.85 114.18L1215.08 111.292ZM1211.64 79.847C1210.08 79.847 1208.92 79.3887 1208.02 78.5581L1205.31 81.5019C1207.04 83.0939 1209.2 83.847 1211.64 83.847V79.847ZM1208.08 78.6158C1207.2 77.7397 1206.77 76.7004 1206.77 75.369H1202.77C1202.77 77.7243 1203.6 79.7923 1205.25 81.4442L1208.08 78.6158ZM1206.77 75.369C1206.77 74.0386 1207.2 73.0433 1208.05 72.231L1205.28 69.343C1203.6 70.9533 1202.77 73.0128 1202.77 75.369H1206.77ZM1208.05 72.2298C1208.96 71.3593 1210.1 70.891 1211.64 70.891V66.891C1209.18 66.891 1207.01 67.6867 1205.28 69.3442L1208.05 72.2298ZM1211.64 70.891C1213.11 70.891 1214.19 71.3479 1215.05 72.2012L1217.88 69.3728C1216.2 67.6981 1214.07 66.891 1211.64 66.891V70.891ZM1215.08 72.231C1215.93 73.0433 1216.36 74.0386 1216.36 75.369H1220.36C1220.36 73.0128 1219.53 70.9533 1217.85 69.343L1215.08 72.231ZM1216.36 75.369C1216.36 76.7004 1215.92 77.7397 1215.05 78.6158L1217.88 81.4442C1219.53 79.7923 1220.36 77.7243 1220.36 75.369H1216.36ZM1215.08 78.586C1214.23 79.3989 1213.14 79.847 1211.64 79.847V83.847C1214.04 83.847 1216.17 83.0837 1217.85 81.474L1215.08 78.586Z" fill="#F68410"/>
</svg>
